<svg class="svg-icon" style="width: 1.0712890625em; height: 1em;vertical-align: middle;fill: currentColor;overflow: hidden;" viewBox="0 0 1097 1024" version="1.1" xmlns="http://www.w3.org/2000/svg"><path d="M641.188571 548.809143c-9.380571 0.018286-18.011429 6.363429-19.309714 15.798857l-54.857143 402.066286a18.285714 18.285714 0 0 0 36.242286 4.937143l52.681143-386.066286c77.933714 1.901714 138.093714 18.797714 166.454857 47.085714C835.017143 645.229714 841.142857 659.602286 841.142857 676.571429v292.571428a18.285714 18.285714 0 0 0 36.571429 0V676.571429c0-26.788571-9.929143-50.285714-29.494857-69.814858-37.449143-37.394286-110.939429-57.947429-207.030858-57.947428M457.179429 548.809143c-96.073143 0.128-170.642286 20.388571-208.256 57.947428C229.339429 626.285714 219.428571 649.782857 219.428571 676.571429v292.571428a18.285714 18.285714 0 0 0 36.571429 0V676.571429c0-16.969143 6.125714-31.341714 18.761143-43.940572 28.342857-28.288 88.502857-45.184 166.436571-47.067428l52.681143 386.048a18.285714 18.285714 0 1 0 36.242286-4.937143l-54.857143-402.048a18.285714 18.285714 0 0 0-18.084571-15.817143M585.142857 585.142857c0-20.169143-16.402286-36.571429-36.571428-36.571428s-36.571429 16.402286-36.571429 36.571428c0 13.476571 7.405714 25.142857 18.285714 31.488V749.714286a18.285714 18.285714 0 0 0 36.571429 0v-133.083429c10.88-6.345143 18.285714-18.011429 18.285714-31.488M256.256 417.792l-15.195429 91.099429a18.285714 18.285714 0 1 0 36.059429 6.016l12.635429-75.648a474.88 474.88 0 0 1 72.740571 6.838857 18.267429 18.267429 0 0 0 21.229714-14.774857 18.285714 18.285714 0 0 0-14.756571-21.229715c-28.032-5.028571-59.52-7.570286-93.604572-7.570285-9.216 0.091429-17.590857 6.107429-19.108571 15.268571M90.276571 402.523429a571.428571 571.428571 0 0 0-74.020571 4.534857 18.285714 18.285714 0 0 0 4.772571 36.260571 511.213714 511.213714 0 0 1 54.930286-4.059428l52.297143 313.472a18.285714 18.285714 0 1 0 36.059429-6.034286l-54.857143-328.886857c-1.517714-9.197714-10.002286-15.213714-19.181715-15.286857M219.428571 438.857143c0-20.169143-16.402286-36.571429-36.571428-36.571429s-36.571429 16.402286-36.571429 36.571429c0 13.476571 7.405714 25.142857 18.285715 31.488V603.428571a18.285714 18.285714 0 0 0 36.571428 0v-133.083428c10.88-6.345143 18.285714-18.011429 18.285714-31.488M734.317714 446.098286c21.997714-3.949714 46.482286-6.235429 72.941715-6.838857l12.635428 75.648a18.285714 18.285714 0 1 0 36.059429-6.016l-15.195429-91.099429c-1.554286-9.161143-9.472-15.195429-19.126857-15.268571-34.157714 0-65.700571 2.541714-93.769143 7.570285a18.285714 18.285714 0 0 0 6.454857 36.004572M1081.252571 407.058286a573.330286 573.330286 0 0 0-74.166857-4.534857c-9.453714 0-17.664 6.089143-19.2 15.268571L932.937143 746.697143a18.267429 18.267429 0 1 0 36.059428 6.034286l52.388572-313.472c19.492571 0.438857 37.961143 1.810286 55.076571 4.059428 9.929143 1.28 19.2-5.723429 20.516572-15.744a18.267429 18.267429 0 0 0-15.725715-20.516571M950.930286 438.857143A36.626286 36.626286 0 0 0 877.714286 438.857143c0 13.476571 7.405714 25.124571 18.285714 31.469714V603.428571a18.285714 18.285714 0 0 0 36.571429 0v-133.046857A36.48 36.48 0 0 0 950.930286 438.857143" fill="white" /><path d="M347.428571 768a18.285714 18.285714 0 0 0-18.285714 18.285714v219.428572a18.285714 18.285714 0 0 0 36.571429 0V786.285714a18.285714 18.285714 0 0 0-18.285715-18.285714M749.714286 768a18.285714 18.285714 0 0 0-18.285715 18.285714v219.428572a18.285714 18.285714 0 0 0 36.571429 0V786.285714a18.285714 18.285714 0 0 0-18.285714-18.285714M402.998857 361.197714c3.492571 35.145143 18.761143 66.084571 19.492572 67.547429C439.076571 461.897143 464.128 512 548.571429 512c84.443429 0 109.494857-50.102857 126.061714-83.254857 0.749714-1.462857 16.018286-32.402286 19.510857-67.547429A36.571429 36.571429 0 0 0 713.142857 329.142857v-36.571428a36.571429 36.571429 0 0 0-18.285714-31.652572V256c0-60.507429-49.206857-109.714286-109.714286-109.714286h-73.142857c-60.507429 0-109.714286 49.206857-109.714286 109.714286v4.918857A36.571429 36.571429 0 0 0 384 292.571429v36.571428a36.571429 36.571429 0 0 0 18.998857 32.054857zM420.571429 292.571429a18.285714 18.285714 0 0 0 18.285714-18.285715v-18.285714c0-40.338286 32.804571-73.142857 73.142857-73.142857h73.142857c40.338286 0 73.142857 32.804571 73.142857 73.142857v18.285714a18.285714 18.285714 0 0 0 18.285715 18.285715v36.571428a18.285714 18.285714 0 0 0-18.285715 18.285714c0 31.634286-16.201143 64.658286-16.365714 64.969143C622.884571 450.468571 606.098286 475.428571 548.571429 475.428571c-57.526857 0-74.331429-24.96-93.348572-63.012571C455.058286 412.086857 438.857143 379.062857 438.857143 347.428571a18.285714 18.285714 0 0 0-18.285714-18.285714v-36.571428zM37.284571 214.912c3.474286 35.145143 18.761143 66.084571 19.492572 67.547429C73.362286 315.611429 98.413714 365.714286 182.857143 365.714286c84.443429 0 109.494857-50.102857 126.061714-83.254857 0.749714-1.462857 16.018286-32.402286 19.510857-67.547429A36.571429 36.571429 0 0 0 347.428571 182.857143V146.285714a36.571429 36.571429 0 0 0-18.285714-31.652571V109.714286c0-60.507429-49.206857-109.714286-109.714286-109.714286H146.285714C85.778286 0 36.571429 49.206857 36.571429 109.714286v4.918857A36.571429 36.571429 0 0 0 18.285714 146.285714v36.571429a36.571429 36.571429 0 0 0 18.998857 32.054857zM54.857143 146.285714a18.285714 18.285714 0 0 0 18.285714-18.285714V109.714286c0-40.338286 32.804571-73.142857 73.142857-73.142857h73.142857c40.338286 0 73.142857 32.804571 73.142858 73.142857v18.285714a18.285714 18.285714 0 0 0 18.285714 18.285714v36.571429a18.285714 18.285714 0 0 0-18.285714 18.285714c0 31.634286-16.201143 64.658286-16.365715 64.969143C257.170286 304.182857 240.384 329.142857 182.857143 329.142857c-57.545143 0-74.313143-24.96-93.348572-63.012571C89.344 265.801143 73.142857 232.777143 73.142857 201.142857a18.285714 18.285714 0 0 0-18.285714-18.285714V146.285714zM750.427429 214.912c3.492571 35.145143 18.761143 66.084571 19.492571 67.547429C786.505143 315.611429 811.556571 365.714286 896 365.714286c84.443429 0 109.494857-50.102857 126.08-83.254857 0.731429-1.462857 16-32.402286 19.492571-67.547429A36.571429 36.571429 0 0 0 1060.571429 182.857143V146.285714a36.571429 36.571429 0 0 0-18.285715-31.652571V109.714286c0-60.507429-49.206857-109.714286-109.714285-109.714286h-73.142858c-60.507429 0-109.714286 49.206857-109.714285 109.714286v4.918857A36.571429 36.571429 0 0 0 731.428571 146.285714v36.571429a36.571429 36.571429 0 0 0 18.998858 32.054857zM768 146.285714a18.285714 18.285714 0 0 0 18.285714-18.285714V109.714286c0-40.338286 32.804571-73.142857 73.142857-73.142857h73.142858c40.338286 0 73.142857 32.804571 73.142857 73.142857v18.285714a18.285714 18.285714 0 0 0 18.285714 18.285714v36.571429a18.285714 18.285714 0 0 0-18.285714 18.285714c0 31.634286-16.201143 64.658286-16.365715 64.969143C970.313143 304.182857 953.526857 329.142857 896 329.142857c-57.545143 0-74.331429-24.96-93.348571-63.012571C802.486857 265.801143 786.285714 232.777143 786.285714 201.142857a18.285714 18.285714 0 0 0-18.285714-18.285714V146.285714z" fill="white" /><path d="M585.142857 329.142857h18.285714a18.285714 18.285714 0 0 0 0-36.571428h-18.285714a18.285714 18.285714 0 0 0 0 36.571428M493.714286 329.142857h18.285714a18.285714 18.285714 0 0 0 0-36.571428h-18.285714a18.285714 18.285714 0 0 0 0 36.571428M932.571429 182.857143h18.285714a18.285714 18.285714 0 0 0 0-36.571429h-18.285714a18.285714 18.285714 0 0 0 0 36.571429M841.142857 182.857143h18.285714a18.285714 18.285714 0 0 0 0-36.571429h-18.285714a18.285714 18.285714 0 0 0 0 36.571429M219.428571 182.857143h18.285715a18.285714 18.285714 0 0 0 0-36.571429h-18.285715a18.285714 18.285714 0 0 0 0 36.571429M128 182.857143h18.285714a18.285714 18.285714 0 0 0 0-36.571429H128a18.285714 18.285714 0 0 0 0 36.571429" fill="white" /></svg>