<svg class="svg-icon" style="width: 1em; height: 1em;vertical-align: middle;fill: currentColor;overflow: hidden;" viewBox="0 0 1024 1024" version="1.1" xmlns="http://www.w3.org/2000/svg"><path d="M512 58.304c-250.56 0-453.696 203.136-453.696 453.696s203.136 453.696 453.696 453.696c250.56 0 453.696-203.136 453.696-453.696s-203.136-453.696-453.696-453.696zM512 868.416c-46.08 0-83.456-37.376-83.456-83.456s37.376-83.456 83.456-83.456c46.08 0 83.456 37.376 83.456 83.456 0 46.144-37.376 83.456-83.456 83.456zM612.736 272.96l-0.064 0.576c0 0.256-0.064 0.576-0.064 0.832l-36.096 332.224c-0.064 0.832-0.128 1.664-0.256 2.496l-0.192 1.856-0.128 0c-4.736 31.04-31.552 54.848-63.936 54.848s-59.2-23.808-63.936-54.912l-0.128 0-0.192-1.792c-0.128-0.832-0.192-1.664-0.256-2.496l-35.968-331.712c-0.064-0.512-0.128-1.088-0.192-1.664l-0.064-0.768c-0.256-2.944-0.384-5.952-0.384-8.96 0-55.872 45.312-101.12 101.12-101.12 55.872 0 101.12 45.312 101.12 101.12 0 3.2-0.128 6.4-0.384 9.472l0 0z"  fill="white" /></svg>