<svg class="svg-icon" style="width: 1em; height: 1em;vertical-align: middle;fill: currentColor;overflow: hidden;" viewBox="0 0 1024 1024" version="1.1" xmlns="http://www.w3.org/2000/svg"><path d="M896.1 160.1h-768a64.19 64.19 0 0 0-64 64v512a64.19 64.19 0 0 0 64 64h192v64h384v-64h192a64.19 64.19 0 0 0 64-64v-512a64.19 64.19 0 0 0-64-64z m0 576h-768v-512h768z" fill="white" /><path d="M480.1 669.43V290.77c-90.8 15.24-160 94.2-160 189.33s69.19 174.1 160 189.33zM544.1 290.77V448.1h157.33A192.15 192.15 0 0 0 544.1 290.77zM701.43 512.1H544.1v157.33A192.15 192.15 0 0 0 701.43 512.1z" fill="white" /></svg>